<mxfile host="65bd71144e">
    <diagram name="Auth-UseCase" id="AuthenticationUseCases">
        <mxGraphModel dx="72986" dy="55893" grid="1" gridSize="9" guides="1" tooltips="1" connect="1" arrows="1" fold="1" page="1" pageScale="1" pageWidth="827" pageHeight="1169" math="0" shadow="0">
            <root>
                <mxCell id="0"/>
                <mxCell id="1" parent="0"/>
                <mxCell id="auth-system-boundary" value="Système d&#39;Authentification (Keycloak)" style="rounded=0;whiteSpace=wrap;html=1;fillColor=#f0f8ff;strokeColor=#4169e1;strokeWidth=3;fontSize=16;fontStyle=1;verticalAlign=top;" parent="1" vertex="1">
                    <mxGeometry x="-57081" y="-46490" width="800" height="700" as="geometry"/>
                </mxCell>
                <mxCell id="user-actor" value="Utilisateur&#xa;Standard" style="shape=umlActor;html=1;verticalLabelPosition=bottom;verticalAlign=top;align=center;fillColor=#e1f5fe;strokeColor=#0277bd;fontSize=12;" parent="1" vertex="1">
                    <mxGeometry x="-57231" y="-46390" width="50" height="100" as="geometry"/>
                </mxCell>
                <mxCell id="admin-actor" value="Administrateur&#xa;Système" style="shape=umlActor;html=1;verticalLabelPosition=bottom;verticalAlign=top;align=center;fillColor=#fff3e0;strokeColor=#f57c00;fontSize=12;" parent="1" vertex="1">
                    <mxGeometry x="-57231" y="-46140" width="50" height="100" as="geometry"/>
                </mxCell>
                <mxCell id="keycloak-actor" value="Serveur&#xa;Keycloak" style="shape=umlActor;html=1;verticalLabelPosition=bottom;verticalAlign=top;align=center;fillColor=#f3e5f5;strokeColor=#8e24aa;fontSize=12;" parent="1" vertex="1">
                    <mxGeometry x="-56181" y="-46240" width="50" height="100" as="geometry"/>
                </mxCell>
                <mxCell id="login-uc" value="Se connecter" style="ellipse;whiteSpace=wrap;html=1;fillColor=#e8f5e8;strokeColor=#4caf50;fontSize=12;" parent="1" vertex="1">
                    <mxGeometry x="-57031" y="-46420" width="140" height="70" as="geometry"/>
                </mxCell>
                <mxCell id="logout-uc" value="Se déconnecter" style="ellipse;whiteSpace=wrap;html=1;fillColor=#e8f5e8;strokeColor=#4caf50;fontSize=12;" parent="1" vertex="1">
                    <mxGeometry x="-56861" y="-46420" width="140" height="70" as="geometry"/>
                </mxCell>
                <mxCell id="register-uc" value="S&#39;inscrire" style="ellipse;whiteSpace=wrap;html=1;fillColor=#e8f5e8;strokeColor=#4caf50;fontSize=12;" parent="1" vertex="1">
                    <mxGeometry x="-57031" y="-46320" width="140" height="70" as="geometry"/>
                </mxCell>
                <mxCell id="reset-password-uc" value="Réinitialiser&#xa;mot de passe" style="ellipse;whiteSpace=wrap;html=1;fillColor=#e8f5e8;strokeColor=#4caf50;fontSize=12;" parent="1" vertex="1">
                    <mxGeometry x="-56861" y="-46320" width="140" height="70" as="geometry"/>
                </mxCell>
                <mxCell id="view-profile-uc" value="Consulter&#xa;son profil" style="ellipse;whiteSpace=wrap;html=1;fillColor=#fff9c4;strokeColor=#fbc02d;fontSize=12;" parent="1" vertex="1">
                    <mxGeometry x="-56691" y="-46420" width="140" height="70" as="geometry"/>
                </mxCell>
                <mxCell id="update-profile-uc" value="Modifier&#xa;son profil" style="ellipse;whiteSpace=wrap;html=1;fillColor=#fff9c4;strokeColor=#fbc02d;fontSize=12;" parent="1" vertex="1">
                    <mxGeometry x="-56691" y="-46320" width="140" height="70" as="geometry"/>
                </mxCell>
                <mxCell id="change-password-uc" value="Changer&#xa;mot de passe" style="ellipse;whiteSpace=wrap;html=1;fillColor=#fff9c4;strokeColor=#fbc02d;fontSize=12;" parent="1" vertex="1">
                    <mxGeometry x="-56521" y="-46420" width="140" height="70" as="geometry"/>
                </mxCell>
                <mxCell id="manage-users-uc" value="Gérer les&#xa;utilisateurs" style="ellipse;whiteSpace=wrap;html=1;fillColor=#ffebee;strokeColor=#f44336;fontSize=12;" parent="1" vertex="1">
                    <mxGeometry x="-57031" y="-46160" width="140" height="70" as="geometry"/>
                </mxCell>
                <mxCell id="manage-roles-uc" value="Gérer les&#xa;rôles" style="ellipse;whiteSpace=wrap;html=1;fillColor=#ffebee;strokeColor=#f44336;fontSize=12;" parent="1" vertex="1">
                    <mxGeometry x="-56861" y="-46160" width="140" height="70" as="geometry"/>
                </mxCell>
                <mxCell id="configure-realms-uc" value="Configurer&#xa;les domaines" style="ellipse;whiteSpace=wrap;html=1;fillColor=#ffebee;strokeColor=#f44336;fontSize=12;" parent="1" vertex="1">
                    <mxGeometry x="-56691" y="-46160" width="140" height="70" as="geometry"/>
                </mxCell>
                <mxCell id="manage-clients-uc" value="Gérer les&#xa;applications" style="ellipse;whiteSpace=wrap;html=1;fillColor=#ffebee;strokeColor=#f44336;fontSize=12;" parent="1" vertex="1">
                    <mxGeometry x="-56521" y="-46160" width="140" height="70" as="geometry"/>
                </mxCell>
                <mxCell id="enable-2fa-uc" value="Activer&#xa;l&#39;authentification à 2 facteurs" style="ellipse;whiteSpace=wrap;html=1;fillColor=#e3f2fd;strokeColor=#1976d2;fontSize=12;" parent="1" vertex="1">
                    <mxGeometry x="-57031" y="-46040" width="160" height="70" as="geometry"/>
                </mxCell>
                <mxCell id="view-sessions-uc" value="Consulter&#xa;les sessions" style="ellipse;whiteSpace=wrap;html=1;fillColor=#e3f2fd;strokeColor=#1976d2;fontSize=12;" parent="1" vertex="1">
                    <mxGeometry x="-56841" y="-46040" width="140" height="70" as="geometry"/>
                </mxCell>
                <mxCell id="audit-logs-uc" value="Consulter&#xa;les logs d&#39;audit" style="ellipse;whiteSpace=wrap;html=1;fillColor=#e3f2fd;strokeColor=#1976d2;fontSize=12;" parent="1" vertex="1">
                    <mxGeometry x="-56671" y="-46040" width="140" height="70" as="geometry"/>
                </mxCell>
                <mxCell id="configure-security-uc" value="Configurer&#xa;les politiques de sécurité" style="ellipse;whiteSpace=wrap;html=1;fillColor=#e3f2fd;strokeColor=#1976d2;fontSize=12;" parent="1" vertex="1">
                    <mxGeometry x="-56501" y="-46040" width="160" height="70" as="geometry"/>
                </mxCell>
                <mxCell id="validate-token-uc" value="Valider&#xa;les tokens JWT" style="ellipse;whiteSpace=wrap;html=1;fillColor=#f3e5f5;strokeColor=#8e24aa;fontSize=12;" parent="1" vertex="1">
                    <mxGeometry x="-56931" y="-45920" width="140" height="70" as="geometry"/>
                </mxCell>
                <mxCell id="refresh-token-uc" value="Rafraîchir&#xa;les tokens" style="ellipse;whiteSpace=wrap;html=1;fillColor=#f3e5f5;strokeColor=#8e24aa;fontSize=12;" parent="1" vertex="1">
                    <mxGeometry x="-56761" y="-45920" width="140" height="70" as="geometry"/>
                </mxCell>
                <mxCell id="sso-login-uc" value="Connexion SSO&#xa;(Single Sign-On)" style="ellipse;whiteSpace=wrap;html=1;fillColor=#f3e5f5;strokeColor=#8e24aa;fontSize=12;" parent="1" vertex="1">
                    <mxGeometry x="-56591" y="-45920" width="140" height="70" as="geometry"/>
                </mxCell>
                <mxCell id="user-login-rel" value="" style="endArrow=none;html=1;entryX=0;entryY=0.5;entryDx=0;entryDy=0;exitX=1;exitY=0.3333333333333333;exitDx=0;exitDy=0;exitPerimeter=0;" parent="1" source="user-actor" target="login-uc" edge="1"/>
                <mxCell id="user-logout-rel" value="" style="endArrow=none;html=1;entryX=0;entryY=0.5;entryDx=0;entryDy=0;exitX=1;exitY=0.3333333333333333;exitDx=0;exitDy=0;exitPerimeter=0;" parent="1" source="user-actor" target="logout-uc" edge="1"/>
                <mxCell id="user-register-rel" value="" style="endArrow=none;html=1;entryX=0;entryY=0.5;entryDx=0;entryDy=0;exitX=1;exitY=0.3333333333333333;exitDx=0;exitDy=0;exitPerimeter=0;" parent="1" source="user-actor" target="register-uc" edge="1"/>
                <mxCell id="user-reset-password-rel" value="" style="endArrow=none;html=1;entryX=0;entryY=0.5;entryDx=0;entryDy=0;exitX=1;exitY=0.3333333333333333;exitDx=0;exitDy=0;exitPerimeter=0;" parent="1" source="user-actor" target="reset-password-uc" edge="1"/>
                <mxCell id="user-view-profile-rel" value="" style="endArrow=none;html=1;entryX=0;entryY=0.5;entryDx=0;entryDy=0;exitX=1;exitY=0.3333333333333333;exitDx=0;exitDy=0;exitPerimeter=0;" parent="1" source="user-actor" target="view-profile-uc" edge="1"/>
                <mxCell id="user-update-profile-rel" value="" style="endArrow=none;html=1;entryX=0;entryY=0.5;entryDx=0;entryDy=0;exitX=1;exitY=0.3333333333333333;exitDx=0;exitDy=0;exitPerimeter=0;" parent="1" source="user-actor" target="update-profile-uc" edge="1"/>
                <mxCell id="user-change-password-rel" value="" style="endArrow=none;html=1;entryX=0;entryY=0.5;entryDx=0;entryDy=0;exitX=1;exitY=0.3333333333333333;exitDx=0;exitDy=0;exitPerimeter=0;" parent="1" source="user-actor" target="change-password-uc" edge="1"/>
                <mxCell id="user-2fa-rel" value="" style="endArrow=none;html=1;entryX=0;entryY=0.5;entryDx=0;entryDy=0;exitX=1;exitY=0.3333333333333333;exitDx=0;exitDy=0;exitPerimeter=0;" parent="1" source="user-actor" target="enable-2fa-uc" edge="1"/>
                <mxCell id="user-sessions-rel" value="" style="endArrow=none;html=1;entryX=0;entryY=0.5;entryDx=0;entryDy=0;exitX=1;exitY=0.3333333333333333;exitDx=0;exitDy=0;exitPerimeter=0;" parent="1" source="user-actor" target="view-sessions-uc" edge="1"/>
                <mxCell id="admin-manage-users-rel" value="" style="endArrow=none;html=1;entryX=0;entryY=0.5;entryDx=0;entryDy=0;exitX=1;exitY=0.3333333333333333;exitDx=0;exitDy=0;exitPerimeter=0;" parent="1" source="admin-actor" target="manage-users-uc" edge="1"/>
                <mxCell id="admin-manage-roles-rel" value="" style="endArrow=none;html=1;entryX=0;entryY=0.5;entryDx=0;entryDy=0;exitX=1;exitY=0.3333333333333333;exitDx=0;exitDy=0;exitPerimeter=0;" parent="1" source="admin-actor" target="manage-roles-uc" edge="1"/>
                <mxCell id="admin-configure-realms-rel" value="" style="endArrow=none;html=1;entryX=0;entryY=0.5;entryDx=0;entryDy=0;exitX=1;exitY=0.3333333333333333;exitDx=0;exitDy=0;exitPerimeter=0;" parent="1" source="admin-actor" target="configure-realms-uc" edge="1"/>
                <mxCell id="admin-manage-clients-rel" value="" style="endArrow=none;html=1;entryX=0;entryY=0.5;entryDx=0;entryDy=0;exitX=1;exitY=0.3333333333333333;exitDx=0;exitDy=0;exitPerimeter=0;" parent="1" source="admin-actor" target="manage-clients-uc" edge="1"/>
                <mxCell id="admin-audit-logs-rel" value="" style="endArrow=none;html=1;entryX=0;entryY=0.5;entryDx=0;entryDy=0;exitX=1;exitY=0.3333333333333333;exitDx=0;exitDy=0;exitPerimeter=0;" parent="1" source="admin-actor" target="audit-logs-uc" edge="1"/>
                <mxCell id="admin-configure-security-rel" value="" style="endArrow=none;html=1;entryX=0;entryY=0.5;entryDx=0;entryDy=0;exitX=1;exitY=0.3333333333333333;exitDx=0;exitDy=0;exitPerimeter=0;" parent="1" source="admin-actor" target="configure-security-uc" edge="1"/>
                <mxCell id="keycloak-validate-token-rel" value="" style="endArrow=none;html=1;entryX=1;entryY=0.5;entryDx=0;entryDy=0;exitX=0;exitY=0.3333333333333333;exitDx=0;exitDy=0;exitPerimeter=0;" parent="1" source="keycloak-actor" target="validate-token-uc" edge="1"/>
                <mxCell id="keycloak-refresh-token-rel" value="" style="endArrow=none;html=1;entryX=1;entryY=0.5;entryDx=0;entryDy=0;exitX=0;exitY=0.3333333333333333;exitDx=0;exitDy=0;exitPerimeter=0;" parent="1" source="keycloak-actor" target="refresh-token-uc" edge="1"/>
                <mxCell id="keycloak-sso-rel" value="" style="endArrow=none;html=1;entryX=1;entryY=0.5;entryDx=0;entryDy=0;exitX=0;exitY=0.3333333333333333;exitDx=0;exitDy=0;exitPerimeter=0;" parent="1" source="keycloak-actor" target="sso-login-uc" edge="1"/>
                <mxCell id="login-include-validate" value="&lt;&lt;include&gt;&gt;" style="html=1;verticalAlign=bottom;labelBackgroundColor=none;endArrow=open;endFill=0;dashed=1;exitX=0.5;exitY=1;exitDx=0;exitDy=0;entryX=0.5;entryY=0;entryDx=0;entryDy=0;" parent="1" source="login-uc" target="validate-token-uc" edge="1"/>
                <mxCell id="profile-include-login" value="&lt;&lt;include&gt;&gt;" style="html=1;verticalAlign=bottom;labelBackgroundColor=none;endArrow=open;endFill=0;dashed=1;exitX=0;exitY=0.5;exitDx=0;exitDy=0;entryX=1;entryY=0.5;entryDx=0;entryDy=0;" parent="1" source="view-profile-uc" target="login-uc" edge="1"/>
                <mxCell id="update-profile-include-login" value="&lt;&lt;include&gt;&gt;" style="html=1;verticalAlign=bottom;labelBackgroundColor=none;endArrow=open;endFill=0;dashed=1;exitX=0;exitY=0;exitDx=0;exitDy=0;entryX=1;entryY=1;entryDx=0;entryDy=0;" parent="1" source="update-profile-uc" target="login-uc" edge="1"/>
                <mxCell id="sso-extend-login" value="&lt;&lt;extend&gt;&gt;" style="html=1;verticalAlign=bottom;labelBackgroundColor=none;endArrow=open;endFill=0;dashed=1;exitX=0.5;exitY=0;exitDx=0;exitDy=0;entryX=0.5;entryY=1;entryDx=0;entryDy=0;" parent="1" source="sso-login-uc" target="login-uc" edge="1"/>
                <mxCell id="title" value="Diagramme de Cas d&#39;Usage - Authentification avec Keycloak&#xa;Application d&#39;Analyse de Sentiments Hespress" style="text;html=1;strokeColor=none;fillColor=none;align=center;verticalAlign=middle;whiteSpace=wrap;rounded=0;fontSize=18;fontStyle=1;" parent="1" vertex="1">
                    <mxGeometry x="-56943" y="-46593" width="603" height="40" as="geometry"/>
                </mxCell>
            </root>
        </mxGraphModel>
    </diagram>
</mxfile>